<svg width="17" height="17" viewBox="0 0 17 17" fill="none" xmlns="http://www.w3.org/2000/svg">
<g id="arrow">
<path id="Stroke 1" d="M3.77403 13.2258C3.5625 13.0143 3.54487 12.6823 3.72115 12.4507L3.77403 12.3902L12.1306 4.03357C12.3614 3.80281 12.7355 3.80281 12.9663 4.03357C13.1778 4.2451 13.1955 4.57711 13.0192 4.80872L12.9663 4.86923L4.60969 13.2258C4.37893 13.4566 4.00479 13.4566 3.77403 13.2258Z" fill="#1C4245" stroke="#1C4245" stroke-width="0.5"/>
<path id="Stroke 3" d="M5.82314 5.05644C5.49679 5.05714 5.23166 4.79316 5.23096 4.46681C5.23032 4.17014 5.44844 3.92405 5.73329 3.88124L5.82059 3.87464L12.5471 3.86016C12.8447 3.85951 13.0912 4.07888 13.133 4.3647L13.1393 4.45228L13.1254 11.1794C13.1247 11.5057 12.8596 11.7697 12.5332 11.769C12.2366 11.7684 11.9914 11.5493 11.9498 11.2642L11.9436 11.1769L11.9559 5.04321L5.82314 5.05644Z" fill="#1C4245" stroke="#1C4245" stroke-width="0.5"/>
</g>
</svg>
