<svg width="449" height="357" viewBox="0 0 449 357" fill="none" xmlns="http://www.w3.org/2000/svg">
<path d="M334.16 9.64797C330.624 1.35997 321.232 -1.66403 313.104 1.19997L171.424 61.488C150.12 70.5755 127.193 75.2458 104.032 75.216H41.088C30.1934 75.2244 19.7474 79.5561 12.0438 87.2597C4.3401 94.9634 0.00847501 105.409 0 116.304V234.736C0.00847501 245.631 4.3401 256.077 12.0438 263.78C19.7474 271.484 30.1934 275.815 41.088 275.824H58.56V313.088C58.5727 324.491 63.108 335.422 71.1708 343.485C79.2336 351.548 90.1655 356.083 101.568 356.096H112.816C117.059 356.096 121.129 354.41 124.13 351.41C127.13 348.409 128.816 344.339 128.816 340.096C128.816 335.853 127.13 331.783 124.13 328.782C121.129 325.782 117.059 324.096 112.816 324.096H101.568C98.6498 324.092 95.8523 322.931 93.7888 320.867C91.7254 318.804 90.5642 316.006 90.56 313.088V275.808H104.032C127.328 275.808 150 280.448 171.424 289.568L312.832 349.728C322.752 354.688 336.032 346.08 335.392 334.912V16.128C335.44 13.9055 335.02 11.6979 334.16 9.64797ZM32 234.736V116.304C32 111.296 36.08 107.216 41.088 107.216H88.032V243.824H41.088C38.679 243.82 36.3699 242.861 34.6665 241.157C32.9631 239.454 32.0042 237.145 32 234.736ZM120.032 106.416C142.04 104.766 163.63 99.5345 183.952 90.928L303.376 40.128V310.912L183.952 260.096C163.488 251.392 142.032 246.336 120.032 244.624V106.416ZM432 161.584H386.96C382.717 161.584 378.647 163.27 375.646 166.27C372.646 169.271 370.96 173.341 370.96 177.584C370.96 181.827 372.646 185.897 375.646 188.898C378.647 191.898 382.717 193.584 386.96 193.584H432C436.243 193.584 440.313 191.898 443.314 188.898C446.314 185.897 448 181.827 448 177.584C448 173.341 446.314 169.271 443.314 166.27C440.313 163.27 436.243 161.584 432 161.584ZM386.976 134.288C389.376 134.288 391.824 133.728 394.128 132.576L439.184 109.952C441.062 109.009 442.737 107.704 444.111 106.114C445.485 104.523 446.533 102.678 447.194 100.683C447.855 98.6872 448.117 96.5812 447.964 94.4847C447.812 92.3883 447.247 90.3424 446.304 88.464C445.361 86.5855 444.056 84.9113 442.466 83.5369C440.876 82.1625 439.03 81.1148 437.035 80.4537C435.039 79.7925 432.933 79.5308 430.837 79.6836C428.74 79.8364 426.694 80.4005 424.816 81.344L379.776 103.984C376.553 105.6 373.969 108.257 372.445 111.524C370.921 114.792 370.545 118.479 371.378 121.987C372.212 125.495 374.206 128.618 377.037 130.851C379.868 133.084 383.37 134.295 386.976 134.288ZM379.776 251.184L424.816 273.808C426.699 274.807 428.762 275.419 430.885 275.609C433.008 275.8 435.148 275.564 437.178 274.916C439.209 274.268 441.089 273.221 442.71 271.836C444.33 270.451 445.657 268.756 446.613 266.851C447.569 264.946 448.135 262.869 448.278 260.743C448.42 258.616 448.136 256.483 447.443 254.467C446.749 252.452 445.66 250.595 444.239 249.006C442.818 247.418 441.094 246.129 439.168 245.216L394.128 222.592C390.35 220.801 386.021 220.56 382.067 221.92C378.114 223.281 374.85 226.135 372.974 229.872C371.098 233.608 370.76 237.931 372.031 241.914C373.302 245.897 376.082 249.225 379.776 251.184Z" fill="black"/>
</svg>
