<svg width="152" height="50" viewBox="0 0 152 50" fill="none" xmlns="http://www.w3.org/2000/svg">
<g id="google">
<path id="Vector" d="M17.029 0.13081C12.6751 0.755646 9.2542 2.43489 6.06652 5.44191C1.98474 9.30808 0.0799084 13.6038 0.00216017 18.993C-0.0755881 24.6556 1.94587 29.459 5.98878 33.4033C14.4633 41.6433 29.2744 40.2374 34.9889 30.6696C36.6216 27.936 37.4379 24.6556 37.4379 20.8675V17.8215H28.4969H19.5558V20.3599V22.8983H25.7757C32.8119 22.8983 32.5398 22.742 31.3736 26.1005C30.5572 28.5999 28.458 30.8649 25.8535 32.1536C23.8709 33.1299 23.2489 33.2471 19.5558 33.2471C15.6684 33.2471 15.3574 33.208 13.025 31.9193C10.1094 30.3182 8.16573 28.2484 6.76626 25.2804C5.91103 23.4059 5.75553 22.5858 5.75553 19.3836C5.75553 16.2203 5.91103 15.3612 6.76626 13.5257C8.28235 10.3625 10.2649 8.29272 13.2194 6.80874C17.7288 4.58276 23.0934 4.85613 27.0197 7.51168L29.0411 8.87851L30.7905 7.12116C32.5398 5.36381 32.5398 5.36381 31.7623 4.50466C29.1966 1.65385 21.7328 -0.572128 17.029 0.13081Z" fill="#BBBBBB"/>
<path id="Vector_2" d="M121.406 19.7741V38.1286H124.127H126.848V19.7741V1.41952H124.127H121.406V19.7741Z" fill="#BBBBBB"/>
<path id="Vector_3" d="M48.3227 14.2677C43.2302 15.947 39.8482 20.1646 39.4594 25.2805C38.9929 31.685 42.6471 36.8009 48.7503 38.3629C54.7369 39.925 61.0346 36.7618 63.367 31.0992C64.4166 28.4827 64.3 23.7184 63.1726 21.1019C62.0453 18.6025 59.5962 16.1813 57.0694 15.0488C54.9702 14.1115 50.1109 13.6819 48.3227 14.2677ZM55.5144 19.8522C59.2463 22.3906 59.9461 28.0141 56.9528 31.5679C55.6699 33.0909 53.9206 33.8329 51.5493 33.8329C49.3334 33.8329 47.7007 32.9347 46.1458 30.904C45.2905 29.7324 45.0184 28.9514 44.9018 26.9597C44.6297 23.0545 46.4956 20.0475 49.7999 18.954C51.3549 18.4463 54.1538 18.8759 55.5144 19.8522Z" fill="#BBBBBB"/>
<path id="Vector_4" d="M75.5346 14.2677C70.4421 15.947 67.06 20.1646 66.6713 25.2805C66.2048 31.685 69.8589 36.8009 75.9622 38.3629C81.9488 39.925 88.2464 36.7618 90.5789 31.0992C91.6285 28.4827 91.5118 23.7184 90.3845 21.1019C89.2571 18.6025 86.8081 16.1813 84.2812 15.0488C82.182 14.1115 77.3228 13.6819 75.5346 14.2677ZM82.7263 19.8522C86.4582 22.3906 87.1579 28.0141 84.1646 31.5679C82.8818 33.0909 81.1324 33.8329 78.7611 33.8329C76.5453 33.8329 74.9126 32.9347 73.3576 30.904C72.5024 29.7324 72.2303 28.9514 72.1136 26.9597C71.8415 23.0545 73.7075 20.0475 77.0118 18.954C78.5667 18.4463 81.3657 18.8759 82.7263 19.8522Z" fill="#BBBBBB"/>
<path id="Vector_5" d="M102.746 14.2677C99.3644 15.3221 96.3322 17.9777 94.8161 21.2971C93.6499 23.8355 93.6499 28.9904 94.8161 31.5288C96.0212 34.1062 98.1982 36.3713 100.725 37.6209C104.34 39.3783 109.472 38.9878 111.26 36.8009C112.115 35.7855 112.465 36.0979 112.465 37.8943C112.465 42.3463 109.938 45.158 105.818 45.158C103.679 45.158 101.775 44.1817 100.492 42.4634C99.9475 41.6824 99.4422 41.0185 99.4422 40.9794C99.2867 40.667 94.9716 42.6977 94.9716 43.0492C94.9716 43.7521 97.1486 46.5639 98.5481 47.6574C101.502 49.8833 105.856 50.5863 109.86 49.4928C112.348 48.7899 115.186 46.1734 116.391 43.5178C117.324 41.4871 117.324 41.2138 117.441 28.0532L117.557 14.6973H115.031C112.543 14.6973 112.465 14.7364 112.465 15.7127V16.689L111.221 15.7517C108.927 14.0334 105.468 13.4476 102.746 14.2677ZM109.705 19.8912C113.204 22.2344 113.864 28.1313 111.027 31.5288C109.666 33.1299 108.15 33.8329 105.973 33.8329C102.397 33.8329 99.5977 31.0602 99.3255 27.194C99.1312 24.3041 99.6754 22.5858 101.464 20.7894C103.874 18.4073 106.945 18.0558 109.705 19.8912Z" fill="#BBBBBB"/>
<path id="Vector_6" d="M137.5 14.3458C135.245 15.0097 132.524 17.1576 131.241 19.3445C127.315 25.9834 129.531 34.4187 136.1 37.5819C137.928 38.4801 138.861 38.6754 141.426 38.6754C144.031 38.7144 144.886 38.5582 146.674 37.66C148.579 36.7227 152.117 33.6767 151.689 33.3252C151.611 33.2471 150.678 32.6223 149.668 31.9193L147.763 30.6306L146.558 31.8022C145.003 33.2861 143.642 33.8329 141.348 33.8329C139.21 33.8329 137.189 32.9347 136.178 31.4897C135.751 30.8649 135.401 30.3182 135.401 30.2401C135.401 30.162 139.133 28.5218 143.681 26.6082L152 23.1716L151.184 21.18C150.056 18.4854 146.985 15.4002 144.575 14.5801C142.515 13.8772 139.444 13.76 137.5 14.3458ZM143.992 19.5007C144.731 19.9693 145.314 20.6332 145.314 20.9456C145.314 21.5314 134.973 26.0615 134.546 25.671C134.001 25.2023 135.051 22.5077 136.295 21.0628C138.511 18.5244 141.621 17.8996 143.992 19.5007Z" fill="#BBBBBB"/>
</g>
</svg>
