<svg width="512" height="512" viewBox="0 0 512 512" fill="none" xmlns="http://www.w3.org/2000/svg">
<path d="M497 0H437C428.716 0 422 6.716 422 15V30H298.42C292.228 12.542 275.555 0 256 0C236.445 0 219.772 12.542 213.58 30H90V15C90 6.716 83.284 0 75 0H15C6.716 0 0 6.716 0 15V75C0 83.284 6.716 90 15 90H75C83.284 90 90 83.284 90 75V59.8H152.377C98.261 94.074 65.365 151.975 61.408 213.442C43.738 219.518 31 236.294 31 256C31 280.813 51.187 301 76 301C100.813 301 121 280.813 121 256C121 236.62 108.685 220.062 91.47 213.74C96.796 143.093 147.668 82.246 215.696 64.982C223.07 79.794 238.361 90 256 90C273.639 90 288.93 79.794 296.304 64.983C364.333 82.247 415.204 143.094 420.53 213.741C403.315 220.062 391 236.62 391 256C391 280.813 411.187 301 436 301C460.813 301 481 280.813 481 256C481 236.294 468.262 219.518 450.592 213.442C446.627 151.852 413.633 94.207 359.623 60H422V75C422 83.284 428.716 90 437 90H497C505.284 90 512 83.284 512 75V15C512 6.716 505.284 0 497 0ZM60 60H30V30H60V60ZM76 271C67.729 271 61 264.271 61 256C61 247.729 67.729 241 76 241C84.271 241 91 247.729 91 256C91 264.271 84.271 271 76 271ZM256 60C247.729 60 241 53.271 241 45C241 36.729 247.729 30 256 30C264.271 30 271 36.729 271 45C271 53.271 264.271 60 256 60ZM436 241C444.271 241 451 247.729 451 256C451 264.271 444.271 271 436 271C427.729 271 421 264.271 421 256C421 247.729 427.729 241 436 241ZM482 60H452V30H482V60Z" fill="black"/>
<path d="M388.48 307.679L268.48 127.68L268.467 127.661C268.424 127.597 268.377 127.536 268.333 127.473C268.128 127.176 267.911 126.886 267.684 126.605C261.363 118.751 249.327 119.281 243.667 127.473C243.623 127.536 243.576 127.597 243.533 127.661L243.52 127.68L123.52 307.68C121.596 310.565 120.732 314.028 121.073 317.478C121.415 320.929 122.942 324.155 125.394 326.607C155.321 356.534 174.369 395.654 179.558 437.508C177.205 439.402 174.964 441.433 172.848 443.589C158.759 458.001 151 476.97 151 497C151 505.284 157.716 512 166 512H346C354.284 512 361 505.284 361 497C361 476.97 353.241 458.001 339.153 443.588C337.037 441.432 334.796 439.401 332.442 437.507C337.63 395.651 356.678 356.531 386.605 326.607C389.057 324.155 390.584 320.929 390.926 317.478C391.268 314.027 390.404 310.564 388.48 307.679ZM256 301C264.271 301 271 307.729 271 316C271 324.271 264.271 331 256 331C247.729 331 241 324.271 241 316C241 307.729 247.729 301 256 301ZM183.558 482C189.799 464.167 206.717 451 226 451H286C305.283 451 322.201 464.167 328.442 482H183.558ZM304.245 423.283C298.283 421.763 292.153 420.996 286 421H226C219.771 421 213.655 421.777 207.755 423.284C200.735 382.855 182.504 345.063 155.105 314.385L241 185.542V273.581C223.541 279.773 211 296.446 211 316.001C211 340.814 231.187 361.001 256 361.001C280.813 361.001 301 340.814 301 316.001C301 296.446 288.459 279.773 271 273.581V185.542L356.896 314.385C329.496 345.06 311.264 382.853 304.245 423.283Z" fill="black"/>
</svg>
