<svg width="30" height="30" viewBox="0 0 30 30" fill="none" xmlns="http://www.w3.org/2000/svg">
<path d="M0.298695 0.0878386C0.0117135 0.245971 0.00585676 0.286968 0 2.68824C0 5.12465 0.00585676 5.18322 0.322122 5.32378C0.562249 5.43506 4.87282 5.42334 5.08952 5.31207C5.38236 5.15979 5.38822 5.08951 5.38822 2.69995C5.38822 0.310395 5.38236 0.240114 5.08952 0.0878386C4.86111 -0.0292969 0.509538 -0.0292969 0.298695 0.0878386ZM4.21686 2.69995V4.22271H2.69411H1.17135V2.69995V1.1772H2.69411H4.21686V2.69995Z" fill="#1C4245"/>
<path d="M24.8971 0.0878386C24.6101 0.245971 24.6042 0.286968 24.5984 2.68824C24.5984 5.12465 24.6042 5.18322 24.9205 5.32378C25.1606 5.43506 29.4712 5.42334 29.6879 5.31207C29.9807 5.15979 29.9866 5.08951 29.9866 2.69995C29.9866 0.310395 29.9807 0.240114 29.6879 0.0878386C29.4595 -0.0292969 25.1079 -0.0292969 24.8971 0.0878386ZM28.8152 2.69995V4.22271H27.2925H25.7697V2.69995V1.1772H27.2925H28.8152V2.69995Z" fill="#1C4245"/>
<path d="M7.16867 2.40714C6.84069 2.53599 6.74698 3.03967 6.99296 3.32665C7.12181 3.47893 7.17452 3.49064 7.63135 3.50821C8.1116 3.53164 8.13503 3.52578 8.32245 3.35594C8.48644 3.20952 8.52158 3.13924 8.52158 2.93425C8.52158 2.72926 8.48644 2.65898 8.3283 2.51842C8.1526 2.36029 8.09989 2.34857 7.71335 2.35443C7.48493 2.35443 7.23309 2.37786 7.16867 2.40714Z" fill="#1C4245"/>
<path d="M10.3313 2.40712C10.0033 2.53597 9.90963 3.03965 10.1556 3.32663C10.2962 3.49062 10.302 3.49062 11.122 3.50819L11.9478 3.53162L12.1528 3.32663C12.428 3.05136 12.428 2.81709 12.1586 2.54768L11.9595 2.34855L11.2098 2.35441C10.794 2.35441 10.3957 2.37784 10.3313 2.40712Z" fill="#1C4245"/>
<path d="M14.1206 2.43054C13.8454 2.58282 13.7517 2.92251 13.9039 3.2212C14.0328 3.46719 14.2261 3.5199 14.9933 3.5199C15.7605 3.5199 15.9538 3.46719 16.0826 3.2212C16.2408 2.91665 16.1295 2.54768 15.8425 2.41883C15.6258 2.31926 14.3022 2.33098 14.1206 2.43054Z" fill="#1C4245"/>
<path d="M17.8338 2.54182C17.6874 2.68824 17.6288 2.79952 17.6288 2.93423C17.6288 3.06893 17.6874 3.18021 17.8338 3.32663L18.0388 3.53162L18.8646 3.50819C19.6846 3.49062 19.6904 3.49062 19.831 3.32663C19.9247 3.21535 19.9715 3.09236 19.9715 2.93423C19.9715 2.77609 19.9247 2.6531 19.831 2.54182C19.6904 2.37784 19.6846 2.37784 18.8646 2.36026L18.0388 2.33684L17.8338 2.54182Z" fill="#1C4245"/>
<path d="M21.6641 2.51256C21.5002 2.65898 21.465 2.72926 21.465 2.93425C21.465 3.13924 21.5002 3.20952 21.6641 3.35594C21.8516 3.52578 21.875 3.53164 22.3552 3.50821C22.8121 3.49064 22.8648 3.47893 22.9936 3.32665C23.0873 3.21537 23.1342 3.09238 23.1342 2.93425C23.1342 2.77612 23.0873 2.65313 22.9936 2.54185C22.8648 2.38957 22.8121 2.37786 22.3552 2.36029C21.875 2.33686 21.8516 2.34272 21.6641 2.51256Z" fill="#1C4245"/>
<path d="M6.99297 6.98708C5.55221 8.4337 4.8084 9.21851 4.79083 9.31807C4.73226 9.67533 4.8084 9.76904 7.73092 12.6857L10.6007 15.5555L9.06041 17.1076L7.52594 18.6596L6.68842 21.0609C6.23159 22.3786 5.85676 23.509 5.85676 23.5676C5.85676 23.8428 6.1496 24.1357 6.43072 24.1357C6.48343 24.1357 7.61379 23.7608 8.93156 23.304L11.3328 22.4665L12.8849 20.932L14.4369 19.3917L17.336 22.2908L20.2351 25.1899H20.5279H20.8149L22.9995 23.0053L25.1841 20.8207V20.5338V20.2468L23.7374 18.7884C22.9351 17.9861 22.2147 17.295 22.1268 17.2481C21.8691 17.1134 21.6759 17.1486 21.4592 17.3653C21.2366 17.5878 21.2015 17.8104 21.3537 18.0446C21.4064 18.1266 21.9746 18.7182 22.6129 19.3624L23.7784 20.5338L22.1444 22.1678L20.5162 23.796L19.749 23.0463L18.9818 22.2966L19.3039 21.957C19.7256 21.4943 19.7841 21.1956 19.503 20.9144C19.2219 20.6333 18.9056 20.6919 18.4664 21.1019L18.1501 21.4064L17.6991 20.9554L17.2481 20.5045L18.0798 19.6728C18.9876 18.765 19.0696 18.6245 18.8939 18.2906C18.7768 18.0622 18.6362 17.9861 18.3551 17.9861C18.1501 17.9861 18.074 18.0446 17.2833 18.8294L16.4282 19.6787L15.8425 19.1281L15.2569 18.5776L19.4503 14.3725C24.083 9.72219 23.9307 9.89789 24.083 8.97838C24.3993 7.08665 22.6247 5.47018 20.7622 5.95044C20.077 6.132 19.9305 6.25499 17.6874 8.48055L15.5497 10.6007L12.6506 7.70746L9.7515 4.80837H9.45866H9.17168L6.99297 6.98708ZM13.0781 13.0781L11.45 14.7063L10.8819 14.1382L10.3079 13.5701L11.1571 12.715C11.9478 11.9185 12.0064 11.8423 12.0064 11.6373C12.0064 11.3562 11.9302 11.2157 11.7018 11.0985C11.3621 10.9228 11.2274 11.0048 10.3372 11.895C9.88621 12.346 9.48795 12.715 9.45281 12.715C9.39424 12.715 8.60944 11.9126 8.60944 11.8482C8.60944 11.8306 8.73828 11.6783 8.90227 11.5144C9.30053 11.0868 9.35324 10.7647 9.07798 10.4894C8.79685 10.2083 8.49816 10.2669 8.03547 10.6944L7.68992 11.0107L6.94612 10.2434L6.19645 9.4762L7.82463 7.84803L9.45866 6.21399L12.0766 8.83196L14.7005 11.4558L13.0781 13.0781ZM22.1093 7.19793C22.3845 7.33849 22.6656 7.62547 22.8179 7.91245C22.9702 8.19357 22.9702 8.91396 22.8179 9.20094C22.7594 9.31221 22.4431 9.67533 22.121 10.0092L21.5236 10.6066L20.4577 9.54063L19.3859 8.46884L19.9598 7.89488C20.7095 7.1335 20.9203 7.02222 21.5236 7.05736C21.7286 7.06908 21.9746 7.12764 22.1093 7.19793ZM15.8601 16.27L11.04 21.0902L9.97406 20.0242L8.90227 18.9524L13.7165 14.1382L18.5366 9.31807L19.6026 10.384L20.6744 11.4558L15.8601 16.27ZM8.72071 22.1327C8.04133 22.3669 7.47322 22.5485 7.45565 22.5368C7.44394 22.5192 7.61964 21.9511 7.85977 21.2717L8.28731 20.0418L9.11897 20.8676L9.95063 21.6993L8.72071 22.1327Z" fill="#1C4245"/>
<path d="M2.3017 7.23311C2.14943 7.36195 2.13772 7.41466 2.12014 7.87149C2.09672 8.35175 2.10257 8.37517 2.27242 8.56259C2.41884 8.72658 2.48912 8.76172 2.69411 8.76172C2.89909 8.76172 2.96937 8.72658 3.10994 8.56845C3.26221 8.3986 3.27978 8.34003 3.27978 7.9652C3.27978 7.52594 3.18607 7.25653 2.9928 7.15111C2.78782 7.04569 2.47741 7.08083 2.3017 7.23311Z" fill="#1C4245"/>
<path d="M26.9001 7.23311C26.7478 7.36195 26.7361 7.41466 26.7185 7.87149C26.6951 8.35175 26.7009 8.37517 26.8708 8.56259C27.0172 8.72658 27.0875 8.76172 27.2925 8.76172C27.4975 8.76172 27.5677 8.72658 27.7083 8.56845C27.8606 8.3986 27.8782 8.34003 27.8782 7.9652C27.8782 7.52594 27.7844 7.25653 27.5912 7.15111C27.3862 7.04569 27.0758 7.08083 26.9001 7.23311Z" fill="#1C4245"/>
<path d="M2.3017 10.3958C2.13772 10.5363 2.13772 10.5422 2.12014 11.3621L2.09672 12.1879L2.3017 12.3929C2.44812 12.5393 2.5594 12.5979 2.69411 12.5979C2.82881 12.5979 2.94009 12.5393 3.08651 12.3929L3.2915 12.1879L3.26807 11.3621C3.2505 10.5422 3.2505 10.5363 3.08651 10.3958C2.97523 10.3021 2.85224 10.2552 2.69411 10.2552C2.53597 10.2552 2.41298 10.3021 2.3017 10.3958Z" fill="#1C4245"/>
<path d="M26.9001 10.3958C26.7361 10.5363 26.7361 10.5422 26.7185 11.3621L26.6951 12.1879L26.9001 12.3929C27.0465 12.5393 27.1578 12.5979 27.2925 12.5979C27.4272 12.5979 27.5385 12.5393 27.6849 12.3929L27.8899 12.1879L27.8665 11.3621C27.8489 10.5422 27.8489 10.5363 27.6849 10.3958C27.5736 10.3021 27.4506 10.2552 27.2925 10.2552C27.1344 10.2552 27.0114 10.3021 26.9001 10.3958Z" fill="#1C4245"/>
<path d="M2.40713 14.1441C2.16114 14.2788 2.11429 14.4486 2.10843 15.2158C2.10843 16.0065 2.16114 16.1939 2.40713 16.3228C2.71168 16.4809 3.08065 16.3696 3.2095 16.0826C3.30321 15.8777 3.30321 14.5892 3.2095 14.3842C3.08065 14.1031 2.69411 13.9859 2.40713 14.1441Z" fill="#1C4245"/>
<path d="M27.0055 14.1441C26.7595 14.2788 26.7127 14.4486 26.7068 15.2158C26.7068 16.0065 26.7595 16.1939 27.0055 16.3228C27.3101 16.4809 27.679 16.3696 27.8079 16.0826C27.8489 15.9948 27.8782 15.6492 27.8782 15.2334C27.8782 14.8176 27.8489 14.472 27.8079 14.3842C27.679 14.1031 27.2925 13.9859 27.0055 14.1441Z" fill="#1C4245"/>
<path d="M19.79 15.6961C19.503 15.9831 19.585 16.4341 19.954 16.6098C20.1941 16.7269 20.3932 16.6918 20.5865 16.4926C20.7856 16.2994 20.8208 16.1002 20.7036 15.8601C20.5279 15.4911 20.077 15.4091 19.79 15.6961Z" fill="#1C4245"/>
<path d="M2.3017 18.074L2.09672 18.2789L2.12014 19.1047C2.13772 19.9247 2.13772 19.9305 2.3017 20.0711C2.52426 20.2644 2.86395 20.2644 3.08651 20.0711C3.2505 19.9305 3.2505 19.9247 3.26807 19.1047L3.2915 18.2789L3.08651 18.074C2.94009 17.9275 2.82881 17.869 2.69411 17.869C2.5594 17.869 2.44812 17.9275 2.3017 18.074Z" fill="#1C4245"/>
<path d="M26.9001 18.074L26.6951 18.2789L26.7185 19.1047C26.7361 19.9247 26.7361 19.9305 26.9001 20.0711C27.1226 20.2644 27.4623 20.2644 27.6849 20.0711C27.8489 19.9305 27.8489 19.9247 27.8665 19.1047L27.8899 18.2789L27.6849 18.074C27.5385 17.9275 27.4272 17.869 27.2925 17.869C27.1578 17.869 27.0465 17.9275 26.9001 18.074Z" fill="#1C4245"/>
<path d="M2.48326 21.7286C2.41298 21.7579 2.3017 21.8574 2.22557 21.9511C2.11429 22.0976 2.10257 22.1678 2.12015 22.6012C2.13772 23.0522 2.14943 23.1049 2.3017 23.2338C2.41298 23.3275 2.53597 23.3743 2.69411 23.3743C2.85224 23.3743 2.97523 23.3275 3.08651 23.2338C3.23879 23.1049 3.2505 23.0522 3.26807 22.5954C3.2915 22.121 3.28564 22.0917 3.12165 21.916C2.94595 21.7227 2.68239 21.6466 2.48326 21.7286Z" fill="#1C4245"/>
<path d="M27.0816 21.7286C27.0114 21.7578 26.9001 21.8574 26.8239 21.9511C26.7127 22.0975 26.701 22.1678 26.7185 22.6012C26.7361 23.0522 26.7478 23.1049 26.9001 23.2338C27.0758 23.386 27.3862 23.4212 27.5912 23.3157C27.7845 23.2103 27.8782 22.9409 27.8782 22.5017C27.8782 22.1327 27.8606 22.0683 27.72 21.9101C27.5443 21.7227 27.2808 21.6466 27.0816 21.7286Z" fill="#1C4245"/>
<path d="M0.298695 24.6862C0.0117135 24.8444 0.00585676 24.8854 0 27.2866C0 29.723 0.00585676 29.7816 0.322122 29.9222C0.562249 30.0334 4.87282 30.0217 5.08952 29.9105C5.38236 29.7582 5.38822 29.6879 5.38822 27.2983C5.38822 24.9088 5.38236 24.8385 5.08952 24.6862C4.86111 24.5691 0.509538 24.5691 0.298695 24.6862ZM4.21686 27.2983V28.8211H2.69411H1.17135V27.2983V25.7756H2.69411H4.21686V27.2983Z" fill="#1C4245"/>
<path d="M24.8971 24.6862C24.6101 24.8444 24.6042 24.8854 24.5984 27.2866C24.5984 29.723 24.6042 29.7816 24.9205 29.9222C25.1606 30.0334 29.4712 30.0217 29.6879 29.9105C29.9807 29.7582 29.9866 29.6879 29.9866 27.2983C29.9866 24.9088 29.9807 24.8385 29.6879 24.6862C29.4595 24.5691 25.1079 24.5691 24.8971 24.6862ZM28.8152 27.2983V28.8211H27.2925H25.7697V27.2983V25.7756H27.2925H28.8152V27.2983Z" fill="#1C4245"/>
<path d="M7.16867 27.0055C6.84069 27.1343 6.74698 27.638 6.99296 27.925C7.12181 28.0773 7.17452 28.089 7.63135 28.1066C8.10575 28.13 8.13503 28.1241 8.31659 27.9601C8.46887 27.8196 8.50986 27.7434 8.51572 27.5385C8.52158 27.3276 8.49229 27.2632 8.3283 27.1168C8.1526 26.9586 8.10575 26.9469 7.71335 26.9528C7.48493 26.9528 7.23309 26.9762 7.16867 27.0055Z" fill="#1C4245"/>
<path d="M10.3313 27.0055C10.0033 27.1344 9.90963 27.638 10.1556 27.925C10.2962 28.089 10.302 28.089 11.122 28.1066L11.9478 28.13L12.1528 27.925C12.428 27.6498 12.428 27.4155 12.1586 27.1461L11.9595 26.9469L11.2098 26.9528C10.794 26.9528 10.3957 26.9762 10.3313 27.0055Z" fill="#1C4245"/>
<path d="M14.1206 27.0289C13.7282 27.2456 13.7399 27.8664 14.1441 28.048C14.3491 28.1417 15.6375 28.1417 15.8425 28.048C16.0124 27.9719 16.1646 27.7259 16.1646 27.5326C16.1646 27.3393 16.0124 27.0934 15.8425 27.0172C15.6258 26.9177 14.3022 26.9294 14.1206 27.0289Z" fill="#1C4245"/>
<path d="M17.8338 27.1402C17.6874 27.2866 17.6288 27.3979 17.6288 27.5326C17.6288 27.6673 17.6874 27.7786 17.8338 27.925L18.0388 28.13L18.8646 28.1066C19.6846 28.089 19.6904 28.089 19.831 27.925C19.9247 27.8137 19.9715 27.6907 19.9715 27.5326C19.9715 27.3745 19.9247 27.2515 19.831 27.1402C19.6904 26.9762 19.6846 26.9762 18.8646 26.9587L18.0388 26.9352L17.8338 27.1402Z" fill="#1C4245"/>
<path d="M21.6641 27.111C21.5002 27.2574 21.465 27.3277 21.465 27.5326C21.465 27.7376 21.5002 27.8079 21.6641 27.9543C21.8516 28.1242 21.875 28.13 22.3552 28.1066C22.8121 28.089 22.8648 28.0773 22.9936 27.925C23.0873 27.8138 23.1342 27.6908 23.1342 27.5326C23.1342 27.3745 23.0873 27.2515 22.9936 27.1402C22.8648 26.988 22.8121 26.9762 22.3552 26.9587C21.875 26.9352 21.8516 26.9411 21.6641 27.111Z" fill="#1C4245"/>
</svg>
