<svg width="374" height="288" viewBox="0 0 374 288" fill="none" xmlns="http://www.w3.org/2000/svg">
<path d="M154.29 114.513C146.77 114.953 138.92 118.073 131.84 125.153C123.99 133.133 122.42 143.952 121.03 153.492C120.12 159.682 119.2 166.082 116.68 169.202C113.03 173.752 112.57 179.912 115.52 184.892C116.12 185.912 116.83 186.823 117.64 187.633C120.73 190.723 125.14 192.142 129.6 191.362C165.73 185.102 173.56 177.273 176.14 174.693C183.29 167.543 187.29 158.753 187.92 149.723C191.82 148.843 195.54 146.932 198.58 143.902L295.63 46.8525C306.34 36.1425 306.34 18.7425 295.63 8.0325C284.92 -2.6775 267.52 -2.6775 256.81 8.0325L159.76 105.082C157.05 107.792 155.3 111.063 154.3 114.513H154.29ZM272.32 23.5625C274.46 21.4225 277.95 21.4225 280.08 23.5625C282.21 25.7025 282.22 29.1925 280.08 31.3225L213.95 97.4525L206.26 89.6225L272.32 23.5625ZM190.73 105.153L198.42 112.983L183.03 128.372L175.25 120.623L190.72 105.153H190.73ZM162.53 139.012C164.96 141.442 166.2 144.212 166.21 147.272C166.23 151.242 164.19 155.573 160.6 159.163C159.08 160.683 153.38 163.562 141.04 166.592C141.79 163.232 142.28 159.863 142.75 156.663C143.7 150.153 144.68 143.412 147.43 140.612C155.07 132.972 160.86 137.392 162.4 138.882L162.53 139.012Z" fill="black"/>
<path d="M362.32 265.962H318.4C336.52 265.962 351.34 251.142 351.34 233.022V57.3525C351.34 45.0025 344.46 34.1925 334.34 28.5525C327.2 24.5725 318.4 30.2125 318.4 38.3925C318.4 42.1525 320.18 45.8825 323.49 47.6325C326.98 49.4725 329.38 53.1425 329.38 57.3525V233.022C329.38 239.062 324.44 244.002 318.4 244.002H54.9C48.86 244.002 43.92 239.062 43.92 233.022V57.3525C43.92 51.3125 48.86 46.3725 54.9 46.3725H186.65C192.71 46.3725 197.63 41.4525 197.63 35.3925C197.63 29.3325 192.71 24.4125 186.65 24.4125H54.9C36.78 24.4125 21.96 39.2325 21.96 57.3525V233.022C21.96 251.142 36.78 265.962 54.9 265.962H10.98C4.94 265.962 0 270.902 0 276.942C0 282.982 4.94 287.922 10.98 287.922H153.49C153.49 281.882 158.43 276.942 164.47 276.942H208.83C214.87 276.942 219.81 281.882 219.81 287.922H362.32C368.36 287.922 373.3 282.982 373.3 276.942C373.3 270.902 368.36 265.962 362.32 265.962Z" fill="black"/>
</svg>
