<svg width="425" height="511" viewBox="0 0 425 511" fill="none" xmlns="http://www.w3.org/2000/svg">
<path fill-rule="evenodd" clip-rule="evenodd" d="M131.881 204.286C109.029 215.848 88.8712 232.099 72.723 251.977H53.522C46.0697 251.95 38.6992 253.53 31.9123 256.608C25.1255 259.687 19.0817 264.191 14.1924 269.816C9.30321 275.44 5.68336 282.052 3.57939 289.201C1.47542 296.35 0.936728 303.869 2 311.245L22.04 453.927H17.232C12.6629 453.934 8.28293 455.752 5.05262 458.984C1.82231 462.215 0.00528992 466.596 0 471.165V492.776C0.00317609 497.346 1.81948 501.728 5.05022 504.96C8.28096 508.192 12.6621 510.01 17.232 510.015H406.832C411.402 510.01 415.784 508.192 419.015 504.96C422.246 501.728 424.063 497.346 424.066 492.776V471.165C424.06 466.596 422.243 462.215 419.012 458.983C415.782 455.752 411.401 453.934 406.832 453.927H402.026L422.059 311.245C423.124 303.869 422.586 296.35 420.483 289.201C418.38 282.052 414.76 275.439 409.871 269.815C404.982 264.19 398.939 259.686 392.152 256.607C385.365 253.529 377.994 251.95 370.542 251.977H351.342C335.193 232.1 315.035 215.85 292.184 204.286C280.813 198.558 268.861 194.066 256.533 190.886C276.908 180.84 293.285 164.196 302.999 143.661C312.713 123.125 315.193 99.9072 310.035 77.7834C304.878 55.6596 292.386 35.9318 274.592 21.8092C256.799 7.68651 234.75 0 212.033 0C189.316 0 167.267 7.68651 149.474 21.8092C131.68 35.9318 119.188 55.6596 114.031 77.7834C108.873 99.9072 111.353 123.125 121.067 143.661C130.781 164.196 147.158 180.84 167.533 190.886C155.205 194.066 143.253 198.558 131.882 204.286H131.881ZM188.191 427.936C188.191 430.058 187.348 432.093 185.848 433.593C184.348 435.093 182.313 435.936 180.191 435.936H90.183C88.0613 435.936 86.0264 435.093 84.5261 433.593C83.0258 432.093 82.183 430.058 82.183 427.936C82.183 425.814 83.0258 423.779 84.5261 422.279C86.0264 420.779 88.0613 419.936 90.183 419.936H180.191C182.312 419.937 184.346 420.781 185.846 422.281C187.346 423.781 188.19 425.815 188.191 427.936ZM237.312 427.936C237.312 430.058 236.469 432.093 234.969 433.593C233.469 435.093 231.434 435.936 229.312 435.936H213.56C211.438 435.936 209.403 435.093 207.903 433.593C206.403 432.093 205.56 430.058 205.56 427.936C205.56 425.814 206.403 423.779 207.903 422.279C209.403 420.779 211.438 419.936 213.56 419.936H229.308C231.429 419.939 233.462 420.783 234.961 422.283C236.461 423.782 237.305 425.815 237.308 427.936H237.312ZM333.881 419.936C336.003 419.936 338.038 420.779 339.538 422.279C341.038 423.779 341.881 425.814 341.881 427.936C341.881 430.058 341.038 432.093 339.538 433.593C338.038 435.093 336.003 435.936 333.881 435.936H262.87C260.748 435.936 258.713 435.093 257.213 433.593C255.713 432.093 254.87 430.058 254.87 427.936C254.87 425.814 255.713 423.779 257.213 422.279C258.713 420.779 260.748 419.936 262.87 419.936H333.881ZM295.711 383.288C295.711 381.166 296.554 379.131 298.054 377.631C299.554 376.131 301.589 375.288 303.711 375.288H340.155C342.277 375.288 344.312 376.131 345.812 377.631C347.312 379.131 348.155 381.166 348.155 383.288C348.155 385.41 347.312 387.445 345.812 388.945C344.312 390.445 342.277 391.288 340.155 391.288H303.71C301.588 391.288 299.553 390.445 298.053 388.945C296.553 387.445 295.711 385.41 295.711 383.288ZM232.232 383.288C232.232 381.166 233.075 379.131 234.575 377.631C236.075 376.131 238.11 375.288 240.232 375.288H268.88C271.002 375.288 273.037 376.131 274.537 377.631C276.037 379.131 276.88 381.166 276.88 383.288C276.88 385.41 276.037 387.445 274.537 388.945C273.037 390.445 271.002 391.288 268.88 391.288H240.232C238.11 391.288 236.075 390.445 234.575 388.945C233.075 387.445 232.232 385.41 232.232 383.288ZM142.361 383.288C142.361 381.166 143.204 379.131 144.704 377.631C146.204 376.131 148.239 375.288 150.361 375.288H210.604C212.726 375.288 214.761 376.131 216.261 377.631C217.761 379.131 218.604 381.166 218.604 383.288C218.604 385.41 217.761 387.445 216.261 388.945C214.761 390.445 212.726 391.288 210.604 391.288H150.36C148.238 391.288 146.203 390.445 144.703 388.945C143.203 387.445 142.361 385.41 142.361 383.288ZM111.581 375.288C113.703 375.288 115.738 376.131 117.238 377.631C118.738 379.131 119.581 381.166 119.581 383.288C119.581 385.41 118.738 387.445 117.238 388.945C115.738 390.445 113.703 391.288 111.581 391.288H83.91C81.7883 391.288 79.7534 390.445 78.2531 388.945C76.7529 387.445 75.91 385.41 75.91 383.288C75.91 381.166 76.7529 379.131 78.2531 377.631C79.7534 376.131 81.7883 375.288 83.91 375.288H111.581ZM82.681 324.559L100.561 342.44C102.062 343.94 102.906 345.974 102.907 348.096C102.907 350.218 102.065 352.254 100.565 353.755C99.0657 355.256 97.0311 356.099 94.9092 356.1C92.7873 356.101 90.752 355.259 89.251 353.759L65.711 330.21C64.2133 328.709 63.3722 326.675 63.3722 324.555C63.3722 322.435 64.2133 320.401 65.711 318.9L89.251 295.36C89.9942 294.617 90.8764 294.028 91.8473 293.627C92.8181 293.225 93.8585 293.019 94.9092 293.019C95.9598 293.019 97.0001 293.227 97.9706 293.629C98.9411 294.032 99.8229 294.621 100.565 295.365C101.308 296.108 101.897 296.99 102.299 297.961C102.7 298.932 102.907 299.972 102.907 301.023C102.906 302.073 102.699 303.114 102.296 304.084C101.894 305.055 101.304 305.936 100.561 306.679L82.681 324.559ZM158.554 353.759C157.053 355.259 155.018 356.101 152.896 356.1C150.774 356.099 148.739 355.256 147.24 353.755C145.74 352.254 144.898 350.218 144.898 348.096C144.899 345.974 145.743 343.94 147.244 342.44L165.124 324.559L147.244 306.679C146.501 305.936 145.911 305.055 145.509 304.084C145.106 303.114 144.899 302.073 144.898 301.023C144.898 299.972 145.105 298.932 145.506 297.961C145.908 296.99 146.497 296.108 147.24 295.365C147.982 294.621 148.864 294.032 149.834 293.629C150.805 293.227 151.845 293.019 152.896 293.019C153.946 293.019 154.987 293.225 155.958 293.627C156.929 294.028 157.811 294.617 158.554 295.36L182.094 318.9C183.592 320.401 184.433 322.435 184.433 324.555C184.433 326.675 183.592 328.709 182.094 330.21L158.554 353.759ZM346.422 330.625C348.544 330.625 350.579 331.468 352.079 332.968C353.579 334.468 354.422 336.503 354.422 338.625C354.422 340.747 353.579 342.782 352.079 344.282C350.579 345.782 348.544 346.625 346.422 346.625H269.214C267.092 346.625 265.057 345.782 263.557 344.282C262.057 342.782 261.214 340.747 261.214 338.625C261.214 336.503 262.057 334.468 263.557 332.968C265.057 331.468 267.092 330.625 269.214 330.625H346.422ZM319.444 293.966C319.444 291.844 320.287 289.809 321.787 288.309C323.287 286.809 325.322 285.966 327.444 285.966H352.691C354.813 285.966 356.848 286.809 358.348 288.309C359.848 289.809 360.691 291.844 360.691 293.966C360.691 296.088 359.848 298.123 358.348 299.623C356.848 301.123 354.813 301.966 352.691 301.966H327.443C325.321 301.966 323.286 301.123 321.786 299.623C320.286 298.123 319.444 296.088 319.444 293.966ZM265.28 293.966C265.28 291.844 266.123 289.809 267.623 288.309C269.123 286.809 271.158 285.966 273.28 285.966H302.659C304.781 285.966 306.816 286.809 308.316 288.309C309.816 289.809 310.659 291.844 310.659 293.966C310.659 296.088 309.816 298.123 308.316 299.623C306.816 301.123 304.781 301.966 302.659 301.966H273.284C271.162 301.966 269.127 301.123 267.627 299.623C266.127 298.123 265.284 296.088 265.284 293.966H265.28ZM211.372 301.966C209.25 301.966 207.215 301.123 205.715 299.623C204.215 298.123 203.372 296.088 203.372 293.966C203.372 291.844 204.215 289.809 205.715 288.309C207.215 286.809 209.25 285.966 211.372 285.966H244.272C246.394 285.966 248.429 286.809 249.929 288.309C251.429 289.809 252.272 291.844 252.272 293.966C252.272 296.088 251.429 298.123 249.929 299.623C248.429 301.123 246.394 301.966 244.272 301.966H211.372ZM217.64 330.626H234.911C237.033 330.626 239.068 331.469 240.568 332.969C242.068 334.469 242.911 336.504 242.911 338.626C242.911 340.748 242.068 342.783 240.568 344.283C239.068 345.783 237.033 346.626 234.911 346.626H217.64C215.518 346.626 213.483 345.783 211.983 344.283C210.483 342.783 209.64 340.748 209.64 338.626C209.64 336.504 210.483 334.469 211.983 332.969C213.483 331.469 215.518 330.626 217.64 330.626ZM134.173 286.236C136.221 286.788 137.966 288.13 139.025 289.967C140.085 291.805 140.372 293.987 139.824 296.036L123.432 357.206C122.977 358.907 121.974 360.411 120.578 361.485C119.183 362.558 117.472 363.142 115.711 363.146C115.008 363.146 114.309 363.052 113.631 362.866C112.616 362.594 111.665 362.125 110.831 361.485C109.998 360.846 109.299 360.048 108.774 359.138C108.249 358.227 107.909 357.223 107.773 356.181C107.637 355.139 107.708 354.08 107.981 353.066L124.372 291.895C124.922 289.845 126.263 288.098 128.1 287.036C129.938 285.975 132.122 285.687 134.172 286.235L134.173 286.236ZM53.522 267.976H370.542C375.704 267.95 380.811 269.039 385.514 271.169C390.216 273.298 394.404 276.417 397.791 280.313C401.177 284.21 403.683 288.791 405.136 293.744C406.589 298.698 406.956 303.907 406.212 309.015L385.87 453.927H38.194L17.852 309.015C17.1074 303.907 17.4743 298.698 18.9276 293.744C20.3809 288.791 22.8864 284.209 26.273 280.313C29.6595 276.416 33.8472 273.297 38.5499 271.168C43.2527 269.038 48.3597 267.949 53.522 267.975V267.976ZM212.013 185.276C195.276 185.272 178.916 180.305 165.002 171.003C151.087 161.701 140.244 148.482 133.842 133.018C127.44 117.554 125.767 100.539 129.035 84.1236C132.303 67.7087 140.364 52.6313 152.201 40.7978C164.037 28.9644 179.116 20.9064 195.532 17.6426C211.948 14.3789 228.963 16.056 244.425 22.4618C259.888 28.8677 273.104 39.7147 282.402 53.6312C291.701 67.5478 296.664 83.9089 296.664 100.646C296.639 123.087 287.712 144.602 271.842 160.468C255.971 176.335 234.454 185.257 212.013 185.276Z" fill="black"/>
</svg>
